<?xml version="1.0" encoding="UTF-8" standalone="no"?><svg xmlns="http://www.w3.org/2000/svg" xmlns:xlink="http://www.w3.org/1999/xlink" contentScriptType="application/ecmascript" contentStyleType="text/css" height="237px" preserveAspectRatio="none" style="width:436px;height:237px;background:#00000000;" version="1.1" viewBox="0 0 436 237" width="436px" zoomAndPan="magnify"><defs><filter height="300%" id="f1200v6u1ruqlv" width="300%" x="-1" y="-1"><feGaussianBlur result="blurOut" stdDeviation="2.0"/><feColorMatrix in="blurOut" result="blurOut2" type="matrix" values="0 0 0 0 0 0 0 0 0 0 0 0 0 0 0 0 0 0 .4 0"/><feOffset dx="4.0" dy="4.0" in="blurOut2" result="blurOut3"/><feBlend in="SourceGraphic" in2="blurOut3" mode="normal"/></filter></defs><g><!--MD5=[2e70b9baf931f95a6b812c993ae5d283]
class CanvasNode--><rect codeLine="6" fill="#FEFECE" filter="url(#f1200v6u1ruqlv)" height="32" id="CanvasNode" style="stroke:#FF0000;stroke-width:1.5;" width="104" x="165.5" y="99"/><ellipse cx="180.5" cy="115" fill="#A9DCDF" rx="11" ry="11" style="stroke:#FF0000;stroke-width:1.0;"/><path d="M180.3633,110.3481 L179.2095,115.4199 L181.5254,115.4199 Z M178.8691,108.1069 L181.8657,108.1069 L185.2109,120.5 L182.7622,120.5 L181.9985,117.437 L178.7197,117.437 L177.9727,120.5 L175.5239,120.5 Z " fill="#000000"/><text fill="#000000" font-family="sans-serif" font-size="12" font-style="italic" lengthAdjust="spacing" textLength="72" x="194.5" y="119.5352">CanvasNode</text><!--MD5=[372f7354164cd38fc5cfe01cbfd4962a]
class GameNode--><rect codeLine="8" fill="#FEFECE" filter="url(#f1200v6u1ruqlv)" height="32" id="GameNode" style="stroke:#FF0000;stroke-width:1.5;" width="97" x="169" y="7"/><ellipse cx="184" cy="23" fill="#A9DCDF" rx="11" ry="11" style="stroke:#FF0000;stroke-width:1.0;"/><path d="M183.8633,18.3481 L182.7095,23.4199 L185.0254,23.4199 Z M182.3691,16.1069 L185.3657,16.1069 L188.7109,28.5 L186.2622,28.5 L185.4985,25.437 L182.2197,25.437 L181.4727,28.5 L179.0239,28.5 Z " fill="#000000"/><text fill="#000000" font-family="sans-serif" font-size="12" font-style="italic" lengthAdjust="spacing" textLength="65" x="198" y="27.5352">GameNode</text><!--MD5=[7340ddc93ee3d3f5fef34806a115f504]
class Graphic--><rect codeLine="11" fill="#FEFECE" filter="url(#f1200v6u1ruqlv)" height="32" id="Graphic" style="stroke:#FF0000;stroke-width:1.5;" width="77" x="7" y="191"/><ellipse cx="22" cy="207" fill="#A9DCDF" rx="11" ry="11" style="stroke:#FF0000;stroke-width:1.0;"/><path d="M21.8633,202.3481 L20.7095,207.4199 L23.0254,207.4199 Z M20.3691,200.1069 L23.3657,200.1069 L26.7109,212.5 L24.2622,212.5 L23.4985,209.437 L20.2197,209.437 L19.4727,212.5 L17.0239,212.5 Z " fill="#000000"/><text fill="#000000" font-family="sans-serif" font-size="12" font-style="italic" lengthAdjust="spacing" textLength="45" x="36" y="211.5352">Graphic</text><!--MD5=[7364a416b8b32844308807b3cb580f4a]
class Tilemap--><rect codeLine="14" fill="#FEFECE" filter="url(#f1200v6u1ruqlv)" height="32" id="Tilemap" style="stroke:#FF0000;stroke-width:1.5;" width="79" x="119" y="191"/><ellipse cx="134" cy="207" fill="#A9DCDF" rx="11" ry="11" style="stroke:#FF0000;stroke-width:1.0;"/><path d="M133.8633,202.3481 L132.7095,207.4199 L135.0254,207.4199 Z M132.3691,200.1069 L135.3657,200.1069 L138.7109,212.5 L136.2622,212.5 L135.4985,209.437 L132.2197,209.437 L131.4727,212.5 L129.0239,212.5 Z " fill="#000000"/><text fill="#000000" font-family="sans-serif" font-size="12" font-style="italic" lengthAdjust="spacing" textLength="47" x="148" y="211.5352">Tilemap</text><!--MD5=[a49b7276910d6619e9702881d69ae75a]
class UIElement--><rect codeLine="17" fill="#FEFECE" filter="url(#f1200v6u1ruqlv)" height="32" id="UIElement" style="stroke:#FF0000;stroke-width:1.5;" width="89" x="233" y="191"/><ellipse cx="248" cy="207" fill="#A9DCDF" rx="11" ry="11" style="stroke:#FF0000;stroke-width:1.0;"/><path d="M247.8633,202.3481 L246.7095,207.4199 L249.0254,207.4199 Z M246.3691,200.1069 L249.3657,200.1069 L252.7109,212.5 L250.2622,212.5 L249.4985,209.437 L246.2197,209.437 L245.4727,212.5 L243.0239,212.5 Z " fill="#000000"/><text fill="#000000" font-family="sans-serif" font-size="12" font-style="italic" lengthAdjust="spacing" textLength="57" x="262" y="211.5352">UIElement</text><!--MD5=[85c2ed8dbf494cb60783de624603a7dd]
class Sprite--><rect codeLine="20" fill="#FEFECE" filter="url(#f1200v6u1ruqlv)" height="32" id="Sprite" style="stroke:#FF0000;stroke-width:1.5;" width="65" x="357" y="191"/><ellipse cx="372" cy="207" fill="#ADD1B2" rx="11" ry="11" style="stroke:#FF0000;stroke-width:1.0;"/><path d="M374.4731,213.1431 Q373.8921,213.4419 373.2529,213.5913 Q372.6138,213.7407 371.9082,213.7407 Q369.4014,213.7407 368.0815,212.0889 Q366.7617,210.437 366.7617,207.3159 Q366.7617,204.1865 368.0815,202.5347 Q369.4014,200.8828 371.9082,200.8828 Q372.6138,200.8828 373.2612,201.0322 Q373.9087,201.1816 374.4731,201.4805 L374.4731,204.2031 Q373.8423,203.6221 373.2488,203.3523 Q372.6553,203.0825 372.0244,203.0825 Q370.6797,203.0825 369.9949,204.1492 Q369.3101,205.2158 369.3101,207.3159 Q369.3101,209.4077 369.9949,210.4744 Q370.6797,211.541 372.0244,211.541 Q372.6553,211.541 373.2488,211.2712 Q373.8423,211.0015 374.4731,210.4204 Z " fill="#000000"/><text fill="#000000" font-family="sans-serif" font-size="12" lengthAdjust="spacing" textLength="33" x="386" y="211.5352">Sprite</text><!--MD5=[3479c302f3db370c517a2738c0ce18e8]
reverse link GameNode to CanvasNode--><path codeLine="10" d="M217.5,59.61 C217.5,73.31 217.5,88.22 217.5,98.96 " fill="none" id="GameNode-backto-CanvasNode" style="stroke:#FF0000;stroke-width:1.0;"/><polygon fill="none" points="210.5,59.27,217.5,39.27,224.5,59.27,210.5,59.27" style="stroke:#FF0000;stroke-width:1.0;"/><!--MD5=[d003a9a1065af00df050b0f80ad30ecb]
reverse link CanvasNode to Graphic--><path codeLine="13" d="M170.85,140.41 C140.06,156.52 100.71,177.11 74.38,190.89 " fill="none" id="CanvasNode-backto-Graphic" style="stroke:#FF0000;stroke-width:1.0;"/><polygon fill="none" points="167.75,134.13,188.71,131.06,174.24,146.54,167.75,134.13" style="stroke:#FF0000;stroke-width:1.0;"/><!--MD5=[1977314f01eff6be06d0263f5e169415]
reverse link CanvasNode to Tilemap--><path codeLine="16" d="M196.41,148.18 C186.84,162.77 175.99,179.31 168.36,190.96 " fill="none" id="CanvasNode-backto-Tilemap" style="stroke:#FF0000;stroke-width:1.0;"/><polygon fill="none" points="190.67,144.16,207.49,131.27,202.38,151.83,190.67,144.16" style="stroke:#FF0000;stroke-width:1.0;"/><!--MD5=[b1aed5b7c77024fa1b37236a68add774]
reverse link CanvasNode to UIElement--><path codeLine="19" d="M238.95,148.18 C248.68,162.77 259.71,179.31 267.47,190.96 " fill="none" id="CanvasNode-backto-UIElement" style="stroke:#FF0000;stroke-width:1.0;"/><polygon fill="none" points="232.95,151.79,227.68,131.27,244.6,144.03,232.95,151.79" style="stroke:#FF0000;stroke-width:1.0;"/><!--MD5=[ac1e2172c441ef3447e8a56f16d2940c]
reverse link CanvasNode to Sprite--><path codeLine="22" d="M264.15,140.41 C294.94,156.52 334.29,177.11 360.62,190.89 " fill="none" id="CanvasNode-backto-Sprite" style="stroke:#FF0000;stroke-width:1.0;"/><polygon fill="none" points="260.76,146.54,246.29,131.06,267.25,134.13,260.76,146.54" style="stroke:#FF0000;stroke-width:1.0;"/><!--MD5=[e03d9cc2786ffebb0d64fb6d0f0ef99b]
@startuml
skinparam ClassArrowColor #ff0000
skinparam ClassBorderColor #ff0000
skinparam BackgroundColor transparent
hide empty methods
hide empty fields
abstract class "CanvasNode" {
}
abstract class "GameNode" {
}
"GameNode" <|- - "CanvasNode"
abstract class "Graphic" {
}
"CanvasNode" <|- - "Graphic"
abstract class "Tilemap" {
}
"CanvasNode" <|- - "Tilemap"
abstract class "UIElement" {
}
"CanvasNode" <|- - "UIElement"
class "Sprite" {
}
"CanvasNode" <|- - "Sprite"
@enduml

PlantUML version 1.2021.14(Fri Nov 12 11:46:50 EST 2021)
(GPL source distribution)
Java Runtime: Java(TM) SE Runtime Environment
JVM: Java HotSpot(TM) 64-Bit Server VM
Default Encoding: UTF-8
Language: en
Country: US
--></g></svg>