<?xml version="1.0" encoding="UTF-8" standalone="no"?><svg xmlns="http://www.w3.org/2000/svg" xmlns:xlink="http://www.w3.org/1999/xlink" contentScriptType="application/ecmascript" contentStyleType="text/css" height="454px" preserveAspectRatio="none" style="width:1719px;height:454px;background:#00000000;" version="1.1" viewBox="0 0 1719 454" width="1719px" zoomAndPan="magnify"><defs><filter height="300%" id="f1eimgdlwflkj2" width="300%" x="-1" y="-1"><feGaussianBlur result="blurOut" stdDeviation="2.0"/><feColorMatrix in="blurOut" result="blurOut2" type="matrix" values="0 0 0 0 0 0 0 0 0 0 0 0 0 0 0 0 0 0 .4 0"/><feOffset dx="4.0" dy="4.0" in="blurOut2" result="blurOut3"/><feBlend in="SourceGraphic" in2="blurOut3" mode="normal"/></filter></defs><g><!--MD5=[c160724f8e3bb89ca8141a12554ac2e3]
class Collection--><rect codeLine="6" fill="#FEFECE" filter="url(#f1eimgdlwflkj2)" height="65.9102" id="Collection" style="stroke:#FF0000;stroke-width:1.5;" width="184" x="657" y="7"/><ellipse cx="717.25" cy="23" fill="#B4A7E5" rx="11" ry="11" style="stroke:#FF0000;stroke-width:1.0;"/><path d="M713.6777,19.2651 L713.6777,17.1069 L721.0571,17.1069 L721.0571,19.2651 L718.5918,19.2651 L718.5918,27.3418 L721.0571,27.3418 L721.0571,29.5 L713.6777,29.5 L713.6777,27.3418 L716.1431,27.3418 L716.1431,19.2651 Z " fill="#000000"/><text fill="#000000" font-family="sans-serif" font-size="12" font-style="italic" lengthAdjust="spacing" textLength="55" x="737.75" y="27.5352">Collection</text><line style="stroke:#FF0000;stroke-width:1.5;" x1="658" x2="840" y1="39" y2="39"/><ellipse cx="668" cy="50" fill="#84BE84" rx="3" ry="3" style="stroke:#038048;stroke-width:1.0;"/><text fill="#000000" font-family="sans-serif" font-size="11" lengthAdjust="spacing" textLength="66" x="677" y="53.6348">clear() : void</text><ellipse cx="668" cy="62.9551" fill="#84BE84" rx="3" ry="3" style="stroke:#038048;stroke-width:1.0;"/><text fill="#000000" font-family="sans-serif" font-size="11" lengthAdjust="spacing" textLength="158" x="677" y="66.5898">forEach(func: Function) : void</text><!--MD5=[4dcd53ac5be50d67f3d64d956c655d59]
class List<T>--><rect codeLine="10" fill="#FEFECE" filter="url(#f1eimgdlwflkj2)" height="125.7305" id="List&lt;T&gt;" style="stroke:#FF0000;stroke-width:1.5;" width="184" x="7" y="223.5"/><ellipse cx="71.25" cy="239.5" fill="#ADD1B2" rx="11" ry="11" style="stroke:#FF0000;stroke-width:1.0;"/><path d="M73.7231,245.6431 Q73.1421,245.9419 72.5029,246.0913 Q71.8638,246.2407 71.1582,246.2407 Q68.6514,246.2407 67.3315,244.5889 Q66.0117,242.937 66.0117,239.8159 Q66.0117,236.6865 67.3315,235.0347 Q68.6514,233.3828 71.1582,233.3828 Q71.8638,233.3828 72.5112,233.5322 Q73.1587,233.6816 73.7231,233.9805 L73.7231,236.7031 Q73.0923,236.1221 72.4988,235.8523 Q71.9053,235.5825 71.2744,235.5825 Q69.9297,235.5825 69.2449,236.6492 Q68.5601,237.7158 68.5601,239.8159 Q68.5601,241.9077 69.2449,242.9744 Q69.9297,244.041 71.2744,244.041 Q71.9053,244.041 72.4988,243.7712 Q73.0923,243.5015 73.7231,242.9204 Z " fill="#000000"/><text fill="#000000" font-family="sans-serif" font-size="12" lengthAdjust="spacing" textLength="47" x="91.75" y="244.0352">List&lt;T&gt;</text><line style="stroke:#FF0000;stroke-width:1.5;" x1="8" x2="190" y1="255.5" y2="255.5"/><rect fill="none" height="6" style="stroke:#C82930;stroke-width:1.0;" width="6" x="15" y="263.5"/><text fill="#000000" font-family="sans-serif" font-size="11" lengthAdjust="spacing" textLength="102" x="27" y="270.1348">head : ListItem&lt;T&gt;</text><rect fill="none" height="6" style="stroke:#C82930;stroke-width:1.0;" width="6" x="15" y="276.4551"/><text fill="#000000" font-family="sans-serif" font-size="11" lengthAdjust="spacing" textLength="92" x="27" y="283.0898">tail : ListItem&lt;T&gt;</text><rect fill="none" height="6" style="stroke:#C82930;stroke-width:1.0;" width="6" x="15" y="289.4102"/><text fill="#000000" font-family="sans-serif" font-size="11" lengthAdjust="spacing" textLength="78" x="27" y="296.0449">_size : number</text><line style="stroke:#FF0000;stroke-width:1.5;" x1="8" x2="190" y1="302.3652" y2="302.3652"/><ellipse cx="18" cy="313.3652" fill="#84BE84" rx="3" ry="3" style="stroke:#038048;stroke-width:1.0;"/><text fill="#000000" font-family="sans-serif" font-size="11" lengthAdjust="spacing" textLength="101" x="27" y="317">add(value: T) : void</text><ellipse cx="18" cy="326.3203" fill="#84BE84" rx="3" ry="3" style="stroke:#038048;stroke-width:1.0;"/><text fill="#000000" font-family="sans-serif" font-size="11" lengthAdjust="spacing" textLength="66" x="27" y="329.9551">clear() : void</text><ellipse cx="18" cy="339.2754" fill="#84BE84" rx="3" ry="3" style="stroke:#038048;stroke-width:1.0;"/><text fill="#000000" font-family="sans-serif" font-size="11" lengthAdjust="spacing" textLength="158" x="27" y="342.9102">forEach(func: Function) : void</text><!--MD5=[8e786d5ad0a1f26ce02b3732d670e3a1]
class Map<T>--><rect codeLine="19" fill="#FEFECE" filter="url(#f1eimgdlwflkj2)" height="177.5508" id="Map&lt;T&gt;" style="stroke:#FF0000;stroke-width:1.5;" width="189" x="226.5" y="197.5"/><ellipse cx="290.25" cy="213.5" fill="#ADD1B2" rx="11" ry="11" style="stroke:#FF0000;stroke-width:1.0;"/><path d="M292.7231,219.6431 Q292.1421,219.9419 291.5029,220.0913 Q290.8638,220.2407 290.1582,220.2407 Q287.6514,220.2407 286.3315,218.5889 Q285.0117,216.937 285.0117,213.8159 Q285.0117,210.6865 286.3315,209.0347 Q287.6514,207.3828 290.1582,207.3828 Q290.8638,207.3828 291.5112,207.5322 Q292.1587,207.6816 292.7231,207.9805 L292.7231,210.7031 Q292.0923,210.1221 291.4988,209.8523 Q290.9053,209.5825 290.2744,209.5825 Q288.9297,209.5825 288.2449,210.6492 Q287.5601,211.7158 287.5601,213.8159 Q287.5601,215.9077 288.2449,216.9744 Q288.9297,218.041 290.2744,218.041 Q290.9053,218.041 291.4988,217.7712 Q292.0923,217.5015 292.7231,216.9204 Z " fill="#000000"/><text fill="#000000" font-family="sans-serif" font-size="12" lengthAdjust="spacing" textLength="53" x="310.75" y="218.0352">Map&lt;T&gt;</text><line style="stroke:#FF0000;stroke-width:1.5;" x1="227.5" x2="414.5" y1="229.5" y2="229.5"/><rect fill="none" height="6" style="stroke:#C82930;stroke-width:1.0;" width="6" x="234.5" y="237.5"/><text fill="#000000" font-family="sans-serif" font-size="11" lengthAdjust="spacing" textLength="133" x="246.5" y="244.1348">map : Record&lt;string, T&gt;</text><line style="stroke:#FF0000;stroke-width:1.5;" x1="227.5" x2="414.5" y1="250.4551" y2="250.4551"/><ellipse cx="237.5" cy="261.4551" fill="#84BE84" rx="3" ry="3" style="stroke:#038048;stroke-width:1.0;"/><text fill="#000000" font-family="sans-serif" font-size="11" lengthAdjust="spacing" textLength="163" x="246.5" y="265.0898">add(key: string, value: T) : void</text><ellipse cx="237.5" cy="274.4102" fill="#84BE84" rx="3" ry="3" style="stroke:#038048;stroke-width:1.0;"/><text fill="#000000" font-family="sans-serif" font-size="11" lengthAdjust="spacing" textLength="66" x="246.5" y="278.0449">clear() : void</text><ellipse cx="237.5" cy="287.3652" fill="#84BE84" rx="3" ry="3" style="stroke:#038048;stroke-width:1.0;"/><text fill="#000000" font-family="sans-serif" font-size="11" lengthAdjust="spacing" textLength="128" x="246.5" y="291">delete(key: string) : void</text><ellipse cx="237.5" cy="300.3203" fill="#84BE84" rx="3" ry="3" style="stroke:#038048;stroke-width:1.0;"/><text fill="#000000" font-family="sans-serif" font-size="11" lengthAdjust="spacing" textLength="158" x="246.5" y="303.9551">forEach(func: Function) : void</text><ellipse cx="237.5" cy="313.2754" fill="#84BE84" rx="3" ry="3" style="stroke:#038048;stroke-width:1.0;"/><text fill="#000000" font-family="sans-serif" font-size="11" lengthAdjust="spacing" textLength="97" x="246.5" y="316.9102">get(key: string) : T</text><ellipse cx="237.5" cy="326.2305" fill="#84BE84" rx="3" ry="3" style="stroke:#038048;stroke-width:1.0;"/><text fill="#000000" font-family="sans-serif" font-size="11" lengthAdjust="spacing" textLength="135" x="246.5" y="329.8652">has(key: string) : boolean</text><ellipse cx="237.5" cy="339.1855" fill="#84BE84" rx="3" ry="3" style="stroke:#038048;stroke-width:1.0;"/><text fill="#000000" font-family="sans-serif" font-size="11" lengthAdjust="spacing" textLength="81" x="246.5" y="342.8203">keys() : string[]</text><ellipse cx="237.5" cy="352.1406" fill="#84BE84" rx="3" ry="3" style="stroke:#038048;stroke-width:1.0;"/><text fill="#000000" font-family="sans-serif" font-size="11" lengthAdjust="spacing" textLength="159" x="246.5" y="355.7754">set(key: string, value: T) : void</text><ellipse cx="237.5" cy="365.0957" fill="#84BE84" rx="3" ry="3" style="stroke:#038048;stroke-width:1.0;"/><text fill="#000000" font-family="sans-serif" font-size="11" lengthAdjust="spacing" textLength="92" x="246.5" y="368.7305">toString() : string</text><!--MD5=[51b30b53d746c08f9b2f1f5a55712f3a]
class QuadTree<T>--><rect codeLine="32" fill="#FEFECE" filter="url(#f1eimgdlwflkj2)" height="255.2813" id="QuadTree&lt;T&gt;" style="stroke:#FF0000;stroke-width:1.5;" width="313" x="450.5" y="159"/><ellipse cx="559.75" cy="175" fill="#ADD1B2" rx="11" ry="11" style="stroke:#FF0000;stroke-width:1.0;"/><path d="M562.2231,181.1431 Q561.6421,181.4419 561.0029,181.5913 Q560.3638,181.7407 559.6582,181.7407 Q557.1514,181.7407 555.8315,180.0889 Q554.5117,178.437 554.5117,175.3159 Q554.5117,172.1865 555.8315,170.5347 Q557.1514,168.8828 559.6582,168.8828 Q560.3638,168.8828 561.0112,169.0322 Q561.6587,169.1816 562.2231,169.4805 L562.2231,172.2031 Q561.5923,171.6221 560.9988,171.3523 Q560.4053,171.0825 559.7744,171.0825 Q558.4297,171.0825 557.7449,172.1492 Q557.0601,173.2158 557.0601,175.3159 Q557.0601,177.4077 557.7449,178.4744 Q558.4297,179.541 559.7744,179.541 Q560.4053,179.541 560.9988,179.2712 Q561.5923,179.0015 562.2231,178.4204 Z " fill="#000000"/><text fill="#000000" font-family="sans-serif" font-size="12" lengthAdjust="spacing" textLength="86" x="580.25" y="179.5352">QuadTree&lt;T&gt;</text><line style="stroke:#FF0000;stroke-width:1.5;" x1="451.5" x2="762.5" y1="191" y2="191"/><polygon fill="none" points="461.5,197,465.5,201,461.5,205,457.5,201" style="stroke:#B38D22;stroke-width:1.0;"/><text fill="#000000" font-family="sans-serif" font-size="11" lengthAdjust="spacing" textLength="89" x="470.5" y="205.6348">boundary : AABB</text><polygon fill="none" points="461.5,209.9551,465.5,213.9551,461.5,217.9551,457.5,213.9551" style="stroke:#B38D22;stroke-width:1.0;"/><text fill="#000000" font-family="sans-serif" font-size="11" lengthAdjust="spacing" textLength="95" x="470.5" y="218.5898">capacity : number</text><polygon fill="none" points="461.5,222.9102,465.5,226.9102,461.5,230.9102,457.5,226.9102" style="stroke:#B38D22;stroke-width:1.0;"/><text fill="#000000" font-family="sans-serif" font-size="11" lengthAdjust="spacing" textLength="91" x="470.5" y="231.5449">divided : boolean</text><polygon fill="none" points="461.5,235.8652,465.5,239.8652,461.5,243.8652,457.5,239.8652" style="stroke:#B38D22;stroke-width:1.0;"/><text fill="#000000" font-family="sans-serif" font-size="11" lengthAdjust="spacing" textLength="53" x="470.5" y="244.5">items : T[]</text><polygon fill="none" points="461.5,248.8203,465.5,252.8203,461.5,256.8203,457.5,252.8203" style="stroke:#B38D22;stroke-width:1.0;"/><text fill="#000000" font-family="sans-serif" font-size="11" lengthAdjust="spacing" textLength="106" x="470.5" y="257.4551">maxDepth : number</text><polygon fill="none" points="461.5,261.7754,465.5,265.7754,461.5,269.7754,457.5,265.7754" style="stroke:#B38D22;stroke-width:1.0;"/><text fill="#000000" font-family="sans-serif" font-size="11" lengthAdjust="spacing" textLength="100" x="470.5" y="270.4102">ne : QuadTree&lt;T&gt;</text><polygon fill="none" points="461.5,274.7305,465.5,278.7305,461.5,282.7305,457.5,278.7305" style="stroke:#B38D22;stroke-width:1.0;"/><text fill="#000000" font-family="sans-serif" font-size="11" lengthAdjust="spacing" textLength="102" x="470.5" y="283.3652">nw : QuadTree&lt;T&gt;</text><polygon fill="none" points="461.5,287.6855,465.5,291.6855,461.5,295.6855,457.5,291.6855" style="stroke:#B38D22;stroke-width:1.0;"/><text fill="#000000" font-family="sans-serif" font-size="11" lengthAdjust="spacing" textLength="99" x="470.5" y="296.3203">se : QuadTree&lt;T&gt;</text><polygon fill="none" points="461.5,300.6406,465.5,304.6406,461.5,308.6406,457.5,304.6406" style="stroke:#B38D22;stroke-width:1.0;"/><text fill="#000000" font-family="sans-serif" font-size="11" lengthAdjust="spacing" textLength="101" x="470.5" y="309.2754">sw : QuadTree&lt;T&gt;</text><line style="stroke:#FF0000;stroke-width:1.5;" x1="451.5" x2="762.5" y1="315.5957" y2="315.5957"/><ellipse cx="461.5" cy="326.5957" fill="#84BE84" rx="3" ry="3" style="stroke:#038048;stroke-width:1.0;"/><text fill="#000000" font-family="sans-serif" font-size="11" lengthAdjust="spacing" textLength="66" x="470.5" y="330.2305">clear() : void</text><ellipse cx="461.5" cy="339.5508" fill="#84BE84" rx="3" ry="3" style="stroke:#038048;stroke-width:1.0;"/><text fill="#000000" font-family="sans-serif" font-size="11" lengthAdjust="spacing" textLength="158" x="470.5" y="343.1855">forEach(func: Function) : void</text><ellipse cx="461.5" cy="352.5059" fill="#84BE84" rx="3" ry="3" style="stroke:#038048;stroke-width:1.0;"/><text fill="#000000" font-family="sans-serif" font-size="11" lengthAdjust="spacing" textLength="107" x="470.5" y="356.1406">insert(item: T) : void</text><ellipse cx="461.5" cy="365.4609" fill="#84BE84" rx="3" ry="3" style="stroke:#038048;stroke-width:1.0;"/><text fill="#000000" font-family="sans-serif" font-size="11" lengthAdjust="spacing" textLength="287" x="470.5" y="369.0957">render_demo(ctx: CanvasRenderingContext2D) : void</text><polygon fill="#FFFF44" points="461.5,373.416,465.5,377.416,461.5,381.416,457.5,377.416" style="stroke:#B38D22;stroke-width:1.0;"/><text fill="#000000" font-family="sans-serif" font-size="11" lengthAdjust="spacing" textLength="135" x="470.5" y="382.0508">deferInsert(item: T) : void</text><polygon fill="#FFFF44" points="461.5,386.3711,465.5,390.3711,461.5,394.3711,457.5,390.3711" style="stroke:#B38D22;stroke-width:1.0;"/><text fill="#000000" font-family="sans-serif" font-size="11" lengthAdjust="spacing" textLength="121" x="470.5" y="395.0059">distributeItems() : void</text><polygon fill="#FFFF44" points="461.5,399.3262,465.5,403.3262,461.5,407.3262,457.5,403.3262" style="stroke:#B38D22;stroke-width:1.0;"/><text fill="#000000" font-family="sans-serif" font-size="11" lengthAdjust="spacing" textLength="92" x="470.5" y="407.9609">subdivide() : void</text><!--MD5=[4cf8791f059241ba487a2a3cb7a4983d]
class Queue<T>--><rect codeLine="51" fill="#FEFECE" filter="url(#f1eimgdlwflkj2)" height="216.416" id="Queue&lt;T&gt;" style="stroke:#FF0000;stroke-width:1.5;" width="184" x="799" y="178.5"/><ellipse cx="854.25" cy="194.5" fill="#ADD1B2" rx="11" ry="11" style="stroke:#FF0000;stroke-width:1.0;"/><path d="M856.7231,200.6431 Q856.1421,200.9419 855.5029,201.0913 Q854.8638,201.2407 854.1582,201.2407 Q851.6514,201.2407 850.3315,199.5889 Q849.0117,197.937 849.0117,194.8159 Q849.0117,191.6865 850.3315,190.0347 Q851.6514,188.3828 854.1582,188.3828 Q854.8638,188.3828 855.5112,188.5322 Q856.1587,188.6816 856.7231,188.9805 L856.7231,191.7031 Q856.0923,191.1221 855.4988,190.8523 Q854.9053,190.5825 854.2744,190.5825 Q852.9297,190.5825 852.2449,191.6492 Q851.5601,192.7158 851.5601,194.8159 Q851.5601,196.9077 852.2449,197.9744 Q852.9297,199.041 854.2744,199.041 Q854.9053,199.041 855.4988,198.7712 Q856.0923,198.5015 856.7231,197.9204 Z " fill="#000000"/><text fill="#000000" font-family="sans-serif" font-size="12" lengthAdjust="spacing" textLength="65" x="874.75" y="199.0352">Queue&lt;T&gt;</text><line style="stroke:#FF0000;stroke-width:1.5;" x1="800" x2="982" y1="210.5" y2="210.5"/><rect fill="none" height="6" style="stroke:#C82930;stroke-width:1.0;" width="6" x="807" y="218.5"/><text fill="#000000" font-family="sans-serif" font-size="11" lengthAdjust="spacing" textLength="77" x="819" y="225.1348">head : number</text><rect fill="none" height="6" style="stroke:#C82930;stroke-width:1.0;" width="6" x="807" y="231.4551"/><text fill="#000000" font-family="sans-serif" font-size="11" lengthAdjust="spacing" textLength="135" x="819" y="238.0898">MAX_ELEMENTS : number</text><rect fill="none" height="6" style="stroke:#C82930;stroke-width:1.0;" width="6" x="807" y="244.4102"/><text fill="#000000" font-family="sans-serif" font-size="11" lengthAdjust="spacing" textLength="31" x="819" y="251.0449">q : T[]</text><rect fill="none" height="6" style="stroke:#C82930;stroke-width:1.0;" width="6" x="807" y="257.3652"/><text fill="#000000" font-family="sans-serif" font-size="11" lengthAdjust="spacing" textLength="72" x="819" y="264">size : number</text><rect fill="none" height="6" style="stroke:#C82930;stroke-width:1.0;" width="6" x="807" y="270.3203"/><text fill="#000000" font-family="sans-serif" font-size="11" lengthAdjust="spacing" textLength="67" x="819" y="276.9551">tail : number</text><line style="stroke:#FF0000;stroke-width:1.5;" x1="800" x2="982" y1="283.2754" y2="283.2754"/><ellipse cx="810" cy="294.2754" fill="#84BE84" rx="3" ry="3" style="stroke:#038048;stroke-width:1.0;"/><text fill="#000000" font-family="sans-serif" font-size="11" lengthAdjust="spacing" textLength="66" x="819" y="297.9102">clear() : void</text><ellipse cx="810" cy="307.2305" fill="#84BE84" rx="3" ry="3" style="stroke:#038048;stroke-width:1.0;"/><text fill="#000000" font-family="sans-serif" font-size="11" lengthAdjust="spacing" textLength="70" x="819" y="310.8652">dequeue() : T</text><ellipse cx="810" cy="320.1855" fill="#84BE84" rx="3" ry="3" style="stroke:#038048;stroke-width:1.0;"/><text fill="#000000" font-family="sans-serif" font-size="11" lengthAdjust="spacing" textLength="122" x="819" y="323.8203">enqueue(item: T) : void</text><ellipse cx="810" cy="333.1406" fill="#84BE84" rx="3" ry="3" style="stroke:#038048;stroke-width:1.0;"/><text fill="#000000" font-family="sans-serif" font-size="11" lengthAdjust="spacing" textLength="158" x="819" y="336.7754">forEach(func: Function) : void</text><ellipse cx="810" cy="346.0957" fill="#84BE84" rx="3" ry="3" style="stroke:#038048;stroke-width:1.0;"/><text fill="#000000" font-family="sans-serif" font-size="11" lengthAdjust="spacing" textLength="97" x="819" y="349.7305">getSize() : number</text><ellipse cx="810" cy="359.0508" fill="#84BE84" rx="3" ry="3" style="stroke:#038048;stroke-width:1.0;"/><text fill="#000000" font-family="sans-serif" font-size="11" lengthAdjust="spacing" textLength="108" x="819" y="362.6855">hasItems() : boolean</text><ellipse cx="810" cy="372.0059" fill="#84BE84" rx="3" ry="3" style="stroke:#038048;stroke-width:1.0;"/><text fill="#000000" font-family="sans-serif" font-size="11" lengthAdjust="spacing" textLength="74" x="819" y="375.6406">peekNext() : T</text><ellipse cx="810" cy="384.9609" fill="#84BE84" rx="3" ry="3" style="stroke:#038048;stroke-width:1.0;"/><text fill="#000000" font-family="sans-serif" font-size="11" lengthAdjust="spacing" textLength="92" x="819" y="388.5957">toString() : string</text><!--MD5=[436d0f1cf037ffca600a8f8d2870c506]
class RegionQuadTree<T>--><rect codeLine="67" fill="#FEFECE" filter="url(#f1eimgdlwflkj2)" height="307.1016" id="RegionQuadTree&lt;T&gt;" style="stroke:#FF0000;stroke-width:1.5;" width="467" x="1018.5" y="133"/><ellipse cx="1185.25" cy="149" fill="#ADD1B2" rx="11" ry="11" style="stroke:#FF0000;stroke-width:1.0;"/><path d="M1187.7231,155.1431 Q1187.1421,155.4419 1186.5029,155.5913 Q1185.8638,155.7407 1185.1582,155.7407 Q1182.6514,155.7407 1181.3315,154.0889 Q1180.0117,152.437 1180.0117,149.3159 Q1180.0117,146.1865 1181.3315,144.5347 Q1182.6514,142.8828 1185.1582,142.8828 Q1185.8638,142.8828 1186.5112,143.0322 Q1187.1587,143.1816 1187.7231,143.4805 L1187.7231,146.2031 Q1187.0923,145.6221 1186.4988,145.3523 Q1185.9053,145.0825 1185.2744,145.0825 Q1183.9297,145.0825 1183.2449,146.1492 Q1182.5601,147.2158 1182.5601,149.3159 Q1182.5601,151.4077 1183.2449,152.4744 Q1183.9297,153.541 1185.2744,153.541 Q1185.9053,153.541 1186.4988,153.2712 Q1187.0923,153.0015 1187.7231,152.4204 Z " fill="#000000"/><text fill="#000000" font-family="sans-serif" font-size="12" lengthAdjust="spacing" textLength="125" x="1205.75" y="153.5352">RegionQuadTree&lt;T&gt;</text><line style="stroke:#FF0000;stroke-width:1.5;" x1="1019.5" x2="1484.5" y1="165" y2="165"/><polygon fill="none" points="1029.5,171,1033.5,175,1029.5,179,1025.5,175" style="stroke:#B38D22;stroke-width:1.0;"/><text fill="#000000" font-family="sans-serif" font-size="11" lengthAdjust="spacing" textLength="89" x="1038.5" y="179.6348">boundary : AABB</text><polygon fill="none" points="1029.5,183.9551,1033.5,187.9551,1029.5,191.9551,1025.5,187.9551" style="stroke:#B38D22;stroke-width:1.0;"/><text fill="#000000" font-family="sans-serif" font-size="11" lengthAdjust="spacing" textLength="95" x="1038.5" y="192.5898">capacity : number</text><polygon fill="none" points="1029.5,196.9102,1033.5,200.9102,1029.5,204.9102,1025.5,200.9102" style="stroke:#B38D22;stroke-width:1.0;"/><text fill="#000000" font-family="sans-serif" font-size="11" lengthAdjust="spacing" textLength="91" x="1038.5" y="205.5449">divided : boolean</text><polygon fill="none" points="1029.5,209.8652,1033.5,213.8652,1029.5,217.8652,1025.5,213.8652" style="stroke:#B38D22;stroke-width:1.0;"/><text fill="#000000" font-family="sans-serif" font-size="11" lengthAdjust="spacing" textLength="53" x="1038.5" y="218.5">items : T[]</text><polygon fill="none" points="1029.5,222.8203,1033.5,226.8203,1029.5,230.8203,1025.5,226.8203" style="stroke:#B38D22;stroke-width:1.0;"/><text fill="#000000" font-family="sans-serif" font-size="11" lengthAdjust="spacing" textLength="106" x="1038.5" y="231.4551">maxDepth : number</text><polygon fill="none" points="1029.5,235.7754,1033.5,239.7754,1029.5,243.7754,1025.5,239.7754" style="stroke:#B38D22;stroke-width:1.0;"/><text fill="#000000" font-family="sans-serif" font-size="11" lengthAdjust="spacing" textLength="137" x="1038.5" y="244.4102">ne : RegionQuadTree&lt;T&gt;</text><polygon fill="none" points="1029.5,248.7305,1033.5,252.7305,1029.5,256.7305,1025.5,252.7305" style="stroke:#B38D22;stroke-width:1.0;"/><text fill="#000000" font-family="sans-serif" font-size="11" lengthAdjust="spacing" textLength="139" x="1038.5" y="257.3652">nw : RegionQuadTree&lt;T&gt;</text><polygon fill="none" points="1029.5,261.6855,1033.5,265.6855,1029.5,269.6855,1025.5,265.6855" style="stroke:#B38D22;stroke-width:1.0;"/><text fill="#000000" font-family="sans-serif" font-size="11" lengthAdjust="spacing" textLength="136" x="1038.5" y="270.3203">se : RegionQuadTree&lt;T&gt;</text><polygon fill="none" points="1029.5,274.6406,1033.5,278.6406,1029.5,282.6406,1025.5,278.6406" style="stroke:#B38D22;stroke-width:1.0;"/><text fill="#000000" font-family="sans-serif" font-size="11" lengthAdjust="spacing" textLength="138" x="1038.5" y="283.2754">sw : RegionQuadTree&lt;T&gt;</text><line style="stroke:#FF0000;stroke-width:1.5;" x1="1019.5" x2="1484.5" y1="289.5957" y2="289.5957"/><ellipse cx="1029.5" cy="300.5957" fill="#84BE84" rx="3" ry="3" style="stroke:#038048;stroke-width:1.0;"/><text fill="#000000" font-family="sans-serif" font-size="11" lengthAdjust="spacing" textLength="66" x="1038.5" y="304.2305">clear() : void</text><ellipse cx="1029.5" cy="313.5508" fill="#84BE84" rx="3" ry="3" style="stroke:#038048;stroke-width:1.0;"/><text fill="#000000" font-family="sans-serif" font-size="11" lengthAdjust="spacing" textLength="158" x="1038.5" y="317.1855">forEach(func: Function) : void</text><ellipse cx="1029.5" cy="326.5059" fill="#84BE84" rx="3" ry="3" style="stroke:#038048;stroke-width:1.0;"/><text fill="#000000" font-family="sans-serif" font-size="11" lengthAdjust="spacing" textLength="107" x="1038.5" y="330.1406">insert(item: T) : void</text><ellipse cx="1029.5" cy="339.4609" fill="#84BE84" rx="3" ry="3" style="stroke:#038048;stroke-width:1.0;"/><text fill="#000000" font-family="sans-serif" font-size="11" lengthAdjust="spacing" textLength="150" x="1038.5" y="343.0957">queryPoint(point: Vec2) : T[]</text><ellipse cx="1029.5" cy="352.416" fill="#84BE84" rx="3" ry="3" style="stroke:#038048;stroke-width:1.0;"/><text fill="#000000" font-family="sans-serif" font-size="11" lengthAdjust="spacing" textLength="186" x="1038.5" y="356.0508">queryRegion(boundary: AABB) : T[]</text><ellipse cx="1029.5" cy="365.3711" fill="#84BE84" rx="3" ry="3" style="stroke:#038048;stroke-width:1.0;"/><text fill="#000000" font-family="sans-serif" font-size="11" lengthAdjust="spacing" textLength="441" x="1038.5" y="369.0059">render_demo(ctx: CanvasRenderingContext2D, origin: Vec2, zoom: number) : void</text><polygon fill="#FFFF44" points="1029.5,373.3262,1033.5,377.3262,1029.5,381.3262,1025.5,377.3262" style="stroke:#B38D22;stroke-width:1.0;"/><text fill="#000000" font-family="sans-serif" font-size="11" lengthAdjust="spacing" textLength="135" x="1038.5" y="381.9609">deferInsert(item: T) : void</text><polygon fill="#FFFF44" points="1029.5,386.2813,1033.5,390.2813,1029.5,394.2813,1025.5,390.2813" style="stroke:#B38D22;stroke-width:1.0;"/><text fill="#000000" font-family="sans-serif" font-size="11" lengthAdjust="spacing" textLength="121" x="1038.5" y="394.916">distributeItems() : void</text><polygon fill="#FFFF44" points="1029.5,399.2363,1033.5,403.2363,1029.5,407.2363,1025.5,403.2363" style="stroke:#B38D22;stroke-width:1.0;"/><text fill="#000000" font-family="sans-serif" font-size="11" lengthAdjust="spacing" textLength="92" x="1038.5" y="407.8711">subdivide() : void</text><polygon fill="#FFFF44" points="1029.5,412.1914,1033.5,416.1914,1029.5,420.1914,1025.5,416.1914" style="stroke:#B38D22;stroke-width:1.0;"/><text fill="#000000" font-family="sans-serif" font-size="11" lengthAdjust="spacing" textLength="346" x="1038.5" y="420.8262">_queryPoint(point: Vec2, results: T[], uniqueMap: Map&lt;T&gt;) : void</text><polygon fill="#FFFF44" points="1029.5,425.1465,1033.5,429.1465,1029.5,433.1465,1025.5,429.1465" style="stroke:#B38D22;stroke-width:1.0;"/><text fill="#000000" font-family="sans-serif" font-size="11" lengthAdjust="spacing" textLength="386" x="1038.5" y="433.7813">_queryRegion(boundary: AABB, results: T[], uniqueMap: boolean[]) : void</text><!--MD5=[fb7006540e733b1a9ab65208252ddbb8]
class Stack<T>--><rect codeLine="90" fill="#FEFECE" filter="url(#f1eimgdlwflkj2)" height="190.5059" id="Stack&lt;T&gt;" style="stroke:#FF0000;stroke-width:1.5;" width="184" x="1521" y="191"/><ellipse cx="1579.75" cy="207" fill="#ADD1B2" rx="11" ry="11" style="stroke:#FF0000;stroke-width:1.0;"/><path d="M1582.2231,213.1431 Q1581.6421,213.4419 1581.0029,213.5913 Q1580.3638,213.7407 1579.6582,213.7407 Q1577.1514,213.7407 1575.8315,212.0889 Q1574.5117,210.437 1574.5117,207.3159 Q1574.5117,204.1865 1575.8315,202.5347 Q1577.1514,200.8828 1579.6582,200.8828 Q1580.3638,200.8828 1581.0112,201.0322 Q1581.6587,201.1816 1582.2231,201.4805 L1582.2231,204.2031 Q1581.5923,203.6221 1580.9988,203.3523 Q1580.4053,203.0825 1579.7744,203.0825 Q1578.4297,203.0825 1577.7449,204.1492 Q1577.0601,205.2158 1577.0601,207.3159 Q1577.0601,209.4077 1577.7449,210.4744 Q1578.4297,211.541 1579.7744,211.541 Q1580.4053,211.541 1580.9988,211.2712 Q1581.5923,211.0015 1582.2231,210.4204 Z " fill="#000000"/><text fill="#000000" font-family="sans-serif" font-size="12" lengthAdjust="spacing" textLength="58" x="1600.25" y="211.5352">Stack&lt;T&gt;</text><line style="stroke:#FF0000;stroke-width:1.5;" x1="1522" x2="1704" y1="223" y2="223"/><rect fill="none" height="6" style="stroke:#C82930;stroke-width:1.0;" width="6" x="1529" y="231"/><text fill="#000000" font-family="sans-serif" font-size="11" lengthAdjust="spacing" textLength="77" x="1541" y="237.6348">head : number</text><rect fill="none" height="6" style="stroke:#C82930;stroke-width:1.0;" width="6" x="1529" y="243.9551"/><text fill="#000000" font-family="sans-serif" font-size="11" lengthAdjust="spacing" textLength="135" x="1541" y="250.5898">MAX_ELEMENTS : number</text><rect fill="none" height="6" style="stroke:#C82930;stroke-width:1.0;" width="6" x="1529" y="256.9102"/><text fill="#000000" font-family="sans-serif" font-size="11" lengthAdjust="spacing" textLength="52" x="1541" y="263.5449">stack : T[]</text><line style="stroke:#FF0000;stroke-width:1.5;" x1="1522" x2="1704" y1="269.8652" y2="269.8652"/><ellipse cx="1532" cy="280.8652" fill="#84BE84" rx="3" ry="3" style="stroke:#038048;stroke-width:1.0;"/><text fill="#000000" font-family="sans-serif" font-size="11" lengthAdjust="spacing" textLength="66" x="1541" y="284.5">clear() : void</text><ellipse cx="1532" cy="293.8203" fill="#84BE84" rx="3" ry="3" style="stroke:#038048;stroke-width:1.0;"/><text fill="#000000" font-family="sans-serif" font-size="11" lengthAdjust="spacing" textLength="158" x="1541" y="297.4551">forEach(func: Function) : void</text><ellipse cx="1532" cy="306.7754" fill="#84BE84" rx="3" ry="3" style="stroke:#038048;stroke-width:1.0;"/><text fill="#000000" font-family="sans-serif" font-size="11" lengthAdjust="spacing" textLength="102" x="1541" y="310.4102">isEmpty() : boolean</text><ellipse cx="1532" cy="319.7305" fill="#84BE84" rx="3" ry="3" style="stroke:#038048;stroke-width:1.0;"/><text fill="#000000" font-family="sans-serif" font-size="11" lengthAdjust="spacing" textLength="49" x="1541" y="323.3652">peek() : T</text><ellipse cx="1532" cy="332.6855" fill="#84BE84" rx="3" ry="3" style="stroke:#038048;stroke-width:1.0;"/><text fill="#000000" font-family="sans-serif" font-size="11" lengthAdjust="spacing" textLength="45" x="1541" y="336.3203">pop() : T</text><ellipse cx="1532" cy="345.6406" fill="#84BE84" rx="3" ry="3" style="stroke:#038048;stroke-width:1.0;"/><text fill="#000000" font-family="sans-serif" font-size="11" lengthAdjust="spacing" textLength="103" x="1541" y="349.2754">push(item: T) : void</text><ellipse cx="1532" cy="358.5957" fill="#84BE84" rx="3" ry="3" style="stroke:#038048;stroke-width:1.0;"/><text fill="#000000" font-family="sans-serif" font-size="11" lengthAdjust="spacing" textLength="80" x="1541" y="362.2305">size() : number</text><ellipse cx="1532" cy="371.5508" fill="#84BE84" rx="3" ry="3" style="stroke:#038048;stroke-width:1.0;"/><text fill="#000000" font-family="sans-serif" font-size="11" lengthAdjust="spacing" textLength="92" x="1541" y="375.1855">toString() : string</text><!--MD5=[4eb1729ebd56ae2608f414e26e76dc86]
reverse link Collection to List<T>--><path codeLine="18" d="M636.81,50.09 C500.1,62.87 278.69,89.57 209,133 C174.51,154.5 147.55,191.15 128.95,223.14 " fill="none" id="Collection-backto-List&lt;T&gt;" style="stroke:#FF0000;stroke-width:1.0;stroke-dasharray:7.0,7.0;"/><polygon fill="none" points="636.2,43.11,656.75,48.27,637.47,57.06,636.2,43.11" style="stroke:#FF0000;stroke-width:1.0;"/><!--MD5=[ddff44a63bd43d18e710a8badc48b93c]
reverse link Collection to Map<T>--><path codeLine="31" d="M636.9,55.38 C572.72,67.85 493.23,90.87 433,133 C408.91,149.85 387.97,173.56 370.93,197.27 " fill="none" id="Collection-backto-Map&lt;T&gt;" style="stroke:#FF0000;stroke-width:1.0;stroke-dasharray:7.0,7.0;"/><polygon fill="none" points="635.79,48.46,656.73,51.76,638.31,62.24,635.79,48.46" style="stroke:#FF0000;stroke-width:1.0;"/><!--MD5=[21eceea7aaf237daefa3b2a5e48b6806]
reverse link Collection to QuadTree<T>--><path codeLine="50" d="M720.18,90.63 C708.6,110.57 694.67,134.55 680.6,158.77 " fill="none" id="Collection-backto-QuadTree&lt;T&gt;" style="stroke:#FF0000;stroke-width:1.0;stroke-dasharray:7.0,7.0;"/><polygon fill="none" points="714.19,86.99,730.29,73.22,726.3,94.03,714.19,86.99" style="stroke:#FF0000;stroke-width:1.0;"/><!--MD5=[af29c0f9b332e8adfb7dde84f08603cf]
reverse link Collection to Queue<T>--><path codeLine="66" d="M777.91,90.78 C792.61,116.08 811.07,147.87 828.79,178.38 " fill="none" id="Collection-backto-Queue&lt;T&gt;" style="stroke:#FF0000;stroke-width:1.0;stroke-dasharray:7.0,7.0;"/><polygon fill="none" points="771.7,94.03,767.71,73.22,783.81,86.99,771.7,94.03" style="stroke:#FF0000;stroke-width:1.0;"/><!--MD5=[24ee9484d373c81dcf9aa3a2df39bef6]
reverse link Collection to RegionQuadTree<T>--><path codeLine="89" d="M860.15,76.3 C904.74,91.82 956.11,111.42 1001,133 C1006.74,135.76 1012.53,138.62 1018.33,141.55 " fill="none" id="Collection-backto-RegionQuadTree&lt;T&gt;" style="stroke:#FF0000;stroke-width:1.0;stroke-dasharray:7.0,7.0;"/><polygon fill="none" points="857.82,82.9,841.16,69.8,862.35,69.66,857.82,82.9" style="stroke:#FF0000;stroke-width:1.0;"/><!--MD5=[61f25ba62b4e6d47c88d6f463867a92a]
reverse link Collection to Stack<T>--><path codeLine="103" d="M861.32,43.8 C1044.3,50.15 1396.97,70.35 1503,133 C1526.75,147.03 1546.8,168.42 1563.02,190.77 " fill="none" id="Collection-backto-Stack&lt;T&gt;" style="stroke:#FF0000;stroke-width:1.0;stroke-dasharray:7.0,7.0;"/><polygon fill="none" points="860.97,50.79,841.22,43.14,861.44,36.8,860.97,50.79" style="stroke:#FF0000;stroke-width:1.0;"/><!--MD5=[b87519cc2229e708315ea946bf34c059]
@startuml
skinparam ClassArrowColor #ff0000
skinparam ClassBorderColor #ff0000
skinparam BackgroundColor transparent
hide empty methods
hide empty fields
interface "Collection" {
    +clear() : void
    +forEach(func: Function) : void
}
class "List<T>" {
    -head : ListItem<T>
    -tail : ListItem<T>
    -_size : number
    +add(value: T) : void
    +clear() : void
    +forEach(func: Function) : void
}
"Collection" <|.. "List<T>"
class "Map<T>" {
    -map : Record<string, T>
    +add(key: string, value: T) : void
    +clear() : void
    +delete(key: string) : void
    +forEach(func: Function) : void
    +get(key: string) : T
    +has(key: string) : boolean
    +keys() : string[]
    +set(key: string, value: T) : void
    +toString() : string
}
"Collection" <|.. "Map<T>"
class "QuadTree<T>" {
    #boundary : AABB
    #capacity : number
    #divided : boolean
    #items : T[]
    #maxDepth : number
    #ne : QuadTree<T>
    #nw : QuadTree<T>
    #se : QuadTree<T>
    #sw : QuadTree<T>
    +clear() : void
    +forEach(func: Function) : void
    +insert(item: T) : void
    +render_demo(ctx: CanvasRenderingContext2D) : void
    #deferInsert(item: T) : void
    #distributeItems() : void
    #subdivide() : void
}
"Collection" <|.. "QuadTree<T>"
class "Queue<T>" {
    -head : number
    -MAX_ELEMENTS : number
    -q : T[]
    -size : number
    -tail : number
    +clear() : void
    +dequeue() : T
    +enqueue(item: T) : void
    +forEach(func: Function) : void
    +getSize() : number
    +hasItems() : boolean
    +peekNext() : T
    +toString() : string
}
"Collection" <|.. "Queue<T>"
class "RegionQuadTree<T>" {
    #boundary : AABB
    #capacity : number
    #divided : boolean
    #items : T[]
    #maxDepth : number
    #ne : RegionQuadTree<T>
    #nw : RegionQuadTree<T>
    #se : RegionQuadTree<T>
    #sw : RegionQuadTree<T>
    +clear() : void
    +forEach(func: Function) : void
    +insert(item: T) : void
    +queryPoint(point: Vec2) : T[]
    +queryRegion(boundary: AABB) : T[]
    +render_demo(ctx: CanvasRenderingContext2D, origin: Vec2, zoom: number) : void
    #deferInsert(item: T) : void
    #distributeItems() : void
    #subdivide() : void
    #_queryPoint(point: Vec2, results: T[], uniqueMap: Map<T>) : void
    #_queryRegion(boundary: AABB, results: T[], uniqueMap: boolean[]) : void
}
"Collection" <|.. "RegionQuadTree<T>"
class "Stack<T>" {
    -head : number
    -MAX_ELEMENTS : number
    -stack : T[]
    +clear() : void
    +forEach(func: Function) : void
    +isEmpty() : boolean
    +peek() : T
    +pop() : T
    +push(item: T) : void
    +size() : number
    +toString() : string
}
"Collection" <|.. "Stack<T>"
@enduml

PlantUML version 1.2021.14(Fri Nov 12 11:46:50 EST 2021)
(GPL source distribution)
Java Runtime: Java(TM) SE Runtime Environment
JVM: Java HotSpot(TM) 64-Bit Server VM
Default Encoding: UTF-8
Language: en
Country: US
--></g></svg>