<?xml version="1.0" encoding="UTF-8" standalone="no"?><svg xmlns="http://www.w3.org/2000/svg" xmlns:xlink="http://www.w3.org/1999/xlink" contentScriptType="application/ecmascript" contentStyleType="text/css" height="272px" preserveAspectRatio="none" style="width:301px;height:272px;background:#00000000;" version="1.1" viewBox="0 0 301 272" width="301px" zoomAndPan="magnify"><defs><filter height="300%" id="f13jz0u0qjs3ys" width="300%" x="-1" y="-1"><feGaussianBlur result="blurOut" stdDeviation="2.0"/><feColorMatrix in="blurOut" result="blurOut2" type="matrix" values="0 0 0 0 0 0 0 0 0 0 0 0 0 0 0 0 0 0 .4 0"/><feOffset dx="4.0" dy="4.0" in="blurOut2" result="blurOut3"/><feBlend in="SourceGraphic" in2="blurOut3" mode="normal"/></filter></defs><g><!--MD5=[d3d7cbe0cb8194fabf62f4773414cf9d]
class default--><rect codeLine="6" fill="#FEFECE" filter="url(#f13jz0u0qjs3ys)" height="138.6855" id="default" style="stroke:#FF0000;stroke-width:1.5;" width="280" x="7" y="120"/><ellipse cx="122.75" cy="136" fill="#ADD1B2" rx="11" ry="11" style="stroke:#FF0000;stroke-width:1.0;"/><path d="M125.2231,142.1431 Q124.6421,142.4419 124.0029,142.5913 Q123.3638,142.7407 122.6582,142.7407 Q120.1514,142.7407 118.8315,141.0889 Q117.5117,139.437 117.5117,136.3159 Q117.5117,133.1865 118.8315,131.5347 Q120.1514,129.8828 122.6582,129.8828 Q123.3638,129.8828 124.0112,130.0322 Q124.6587,130.1816 125.2231,130.4805 L125.2231,133.2031 Q124.5923,132.6221 123.9988,132.3523 Q123.4053,132.0825 122.7744,132.0825 Q121.4297,132.0825 120.7449,133.1492 Q120.0601,134.2158 120.0601,136.3159 Q120.0601,138.4077 120.7449,139.4744 Q121.4297,140.541 122.7744,140.541 Q123.4053,140.541 123.9988,140.2712 Q124.5923,140.0015 125.2231,139.4204 Z " fill="#000000"/><text fill="#000000" font-family="sans-serif" font-size="12" lengthAdjust="spacing" textLength="40" x="143.25" y="140.5352">default</text><line style="stroke:#FF0000;stroke-width:1.5;" x1="8" x2="286" y1="152" y2="152"/><ellipse cx="18" cy="163" rx="3" ry="3" style="stroke:#038048;stroke-width:1.0;fill:none;"/><text fill="#000000" font-family="sans-serif" font-size="11" lengthAdjust="spacing" textLength="81" x="27" y="166.6348">actors : Actor[]</text><ellipse cx="18" cy="175.9551" rx="3" ry="3" style="stroke:#038048;stroke-width:1.0;fill:none;"/><text fill="#000000" font-family="sans-serif" font-size="11" lengthAdjust="spacing" textLength="192" x="27" y="179.5898">registeredAI : Map&lt;AIConstructor&gt;</text><line style="stroke:#FF0000;stroke-width:1.5;" x1="8" x2="286" y1="185.9102" y2="185.9102"/><ellipse cx="18" cy="196.9102" fill="#84BE84" rx="3" ry="3" style="stroke:#038048;stroke-width:1.0;"/><text fill="#000000" font-family="sans-serif" font-size="11" lengthAdjust="spacing" textLength="202" x="27" y="200.5449">generateAI(name: string) : AI | GoapAI</text><ellipse cx="18" cy="209.8652" fill="#84BE84" rx="3" ry="3" style="stroke:#038048;stroke-width:1.0;"/><text fill="#000000" font-family="sans-serif" font-size="11" lengthAdjust="spacing" textLength="176" x="27" y="213.5">registerActor(actor: Actor) : void</text><ellipse cx="18" cy="222.8203" fill="#84BE84" rx="3" ry="3" style="stroke:#038048;stroke-width:1.0;"/><text fill="#000000" font-family="sans-serif" font-size="11" lengthAdjust="spacing" textLength="254" x="27" y="226.4551">registerAI(name: string, constr: Function) : void</text><ellipse cx="18" cy="235.7754" fill="#84BE84" rx="3" ry="3" style="stroke:#038048;stroke-width:1.0;"/><text fill="#000000" font-family="sans-serif" font-size="11" lengthAdjust="spacing" textLength="174" x="27" y="239.4102">removeActor(actor: Actor) : void</text><ellipse cx="18" cy="248.7305" fill="#84BE84" rx="3" ry="3" style="stroke:#038048;stroke-width:1.0;"/><text fill="#000000" font-family="sans-serif" font-size="11" lengthAdjust="spacing" textLength="158" x="27" y="252.3652">update(deltaT: number) : void</text><!--MD5=[8336922478991a54f539d469b4e48cc0]
class Updateable--><rect codeLine="15" fill="#FEFECE" filter="url(#f13jz0u0qjs3ys)" height="52.9551" id="Updateable" style="stroke:#FF0000;stroke-width:1.5;" width="184" x="55" y="7"/><ellipse cx="109.25" cy="23" fill="#B4A7E5" rx="11" ry="11" style="stroke:#FF0000;stroke-width:1.0;"/><path d="M105.6777,19.2651 L105.6777,17.1069 L113.0571,17.1069 L113.0571,19.2651 L110.5918,19.2651 L110.5918,27.3418 L113.0571,27.3418 L113.0571,29.5 L105.6777,29.5 L105.6777,27.3418 L108.1431,27.3418 L108.1431,19.2651 Z " fill="#000000"/><text fill="#000000" font-family="sans-serif" font-size="12" font-style="italic" lengthAdjust="spacing" textLength="67" x="129.75" y="27.5352">Updateable</text><line style="stroke:#FF0000;stroke-width:1.5;" x1="56" x2="238" y1="39" y2="39"/><ellipse cx="66" cy="50" fill="#84BE84" rx="3" ry="3" style="stroke:#038048;stroke-width:1.0;"/><text fill="#000000" font-family="sans-serif" font-size="11" lengthAdjust="spacing" textLength="158" x="75" y="53.6348">update(deltaT: number) : void</text><!--MD5=[6038c1fdca14081ec92d43d50f375e75]
reverse link Updateable to default--><path codeLine="18" d="M147,80.71 C147,93.01 147,106.56 147,119.78 " fill="none" id="Updateable-backto-default" style="stroke:#FF0000;stroke-width:1.0;stroke-dasharray:7.0,7.0;"/><polygon fill="none" points="140,80.28,147,60.28,154,80.28,140,80.28" style="stroke:#FF0000;stroke-width:1.0;"/><!--MD5=[14bd3c589efa07d8b50e6ece2c49f656]
@startuml
skinparam ClassArrowColor #ff0000
skinparam ClassBorderColor #ff0000
skinparam BackgroundColor transparent
hide empty methods
hide empty fields
class "default" {
    +actors : Actor[]
    +registeredAI : Map<AIConstructor>
    +generateAI(name: string) : AI | GoapAI
    +registerActor(actor: Actor) : void
    +registerAI(name: string, constr: Function) : void
    +removeActor(actor: Actor) : void
    +update(deltaT: number) : void
}
interface "Updateable" {
    +update(deltaT: number) : void
}
"Updateable" <|.. "default"
@enduml

PlantUML version 1.2021.14(Fri Nov 12 11:46:50 EST 2021)
(GPL source distribution)
Java Runtime: Java(TM) SE Runtime Environment
JVM: Java HotSpot(TM) 64-Bit Server VM
Default Encoding: UTF-8
Language: en
Country: US
--></g></svg>