<?xml version="1.0" encoding="UTF-8" standalone="no"?><svg xmlns="http://www.w3.org/2000/svg" xmlns:xlink="http://www.w3.org/1999/xlink" contentScriptType="application/ecmascript" contentStyleType="text/css" height="145px" preserveAspectRatio="none" style="width:162px;height:145px;background:#00000000;" version="1.1" viewBox="0 0 162 145" width="162px" zoomAndPan="magnify"><defs><filter height="300%" id="f4jm3ylbuxp73" width="300%" x="-1" y="-1"><feGaussianBlur result="blurOut" stdDeviation="2.0"/><feColorMatrix in="blurOut" result="blurOut2" type="matrix" values="0 0 0 0 0 0 0 0 0 0 0 0 0 0 0 0 0 0 .4 0"/><feOffset dx="4.0" dy="4.0" in="blurOut2" result="blurOut3"/><feBlend in="SourceGraphic" in2="blurOut3" mode="normal"/></filter></defs><g><!--MD5=[23b9abca768978edd44d6ccee2a21c55]
class WebGLRender--><rect codeLine="6" fill="#FEFECE" filter="url(#f4jm3ylbuxp73)" height="32" id="WebGLRender" style="stroke:#FF0000;stroke-width:1.5;" width="114" x="20.5" y="99"/><ellipse cx="35.5" cy="115" fill="#ADD1B2" rx="11" ry="11" style="stroke:#FF0000;stroke-width:1.0;"/><path d="M37.9731,121.1431 Q37.3921,121.4419 36.7529,121.5913 Q36.1138,121.7407 35.4082,121.7407 Q32.9014,121.7407 31.5815,120.0889 Q30.2617,118.437 30.2617,115.3159 Q30.2617,112.1865 31.5815,110.5347 Q32.9014,108.8828 35.4082,108.8828 Q36.1138,108.8828 36.7612,109.0322 Q37.4087,109.1816 37.9731,109.4805 L37.9731,112.2031 Q37.3423,111.6221 36.7488,111.3523 Q36.1553,111.0825 35.5244,111.0825 Q34.1797,111.0825 33.4949,112.1492 Q32.8101,113.2158 32.8101,115.3159 Q32.8101,117.4077 33.4949,118.4744 Q34.1797,119.541 35.5244,119.541 Q36.1553,119.541 36.7488,119.2712 Q37.3423,119.0015 37.9731,118.4204 Z " fill="#000000"/><text fill="#000000" font-family="sans-serif" font-size="12" lengthAdjust="spacing" textLength="82" x="49.5" y="119.5352">WebGLRender</text><!--MD5=[b2ada768cd946f90616e4aa0cdf316b8]
class RenderingManager--><rect codeLine="8" fill="#FEFECE" filter="url(#f4jm3ylbuxp73)" height="32" id="RenderingManager" style="stroke:#FF0000;stroke-width:1.5;" width="141" x="7" y="7"/><ellipse cx="22" cy="23" fill="#A9DCDF" rx="11" ry="11" style="stroke:#FF0000;stroke-width:1.0;"/><path d="M21.8633,18.3481 L20.7095,23.4199 L23.0254,23.4199 Z M20.3691,16.1069 L23.3657,16.1069 L26.7109,28.5 L24.2622,28.5 L23.4985,25.437 L20.2197,25.437 L19.4727,28.5 L17.0239,28.5 Z " fill="#000000"/><text fill="#000000" font-family="sans-serif" font-size="12" font-style="italic" lengthAdjust="spacing" textLength="109" x="36" y="27.5352">RenderingManager</text><!--MD5=[3eaffc276dd810fb3f7a290a94e8e449]
reverse link RenderingManager to WebGLRender--><path codeLine="10" d="M77.5,59.61 C77.5,73.31 77.5,88.22 77.5,98.96 " fill="none" id="RenderingManager-backto-WebGLRender" style="stroke:#FF0000;stroke-width:1.0;"/><polygon fill="none" points="70.5,59.27,77.5,39.27,84.5,59.27,70.5,59.27" style="stroke:#FF0000;stroke-width:1.0;"/><!--MD5=[f61c74f18665592c3d8bf0cedaf84c0f]
@startuml
skinparam ClassArrowColor #ff0000
skinparam ClassBorderColor #ff0000
skinparam BackgroundColor transparent
hide empty methods
hide empty fields
class "WebGLRender" {
}
abstract class "RenderingManager" {
}
"RenderingManager" <|- - "WebGLRender"
@enduml

PlantUML version 1.2021.14(Fri Nov 12 11:46:50 EST 2021)
(GPL source distribution)
Java Runtime: Java(TM) SE Runtime Environment
JVM: Java HotSpot(TM) 64-Bit Server VM
Default Encoding: UTF-8
Language: en
Country: US
--></g></svg>