<?xml version="1.0" encoding="UTF-8" standalone="no"?><svg xmlns="http://www.w3.org/2000/svg" xmlns:xlink="http://www.w3.org/1999/xlink" contentScriptType="application/ecmascript" contentStyleType="text/css" height="145px" preserveAspectRatio="none" style="width:823px;height:145px;background:#00000000;" version="1.1" viewBox="0 0 823 145" width="823px" zoomAndPan="magnify"><defs><filter height="300%" id="fs1ydtxyfdxir" width="300%" x="-1" y="-1"><feGaussianBlur result="blurOut" stdDeviation="2.0"/><feColorMatrix in="blurOut" result="blurOut2" type="matrix" values="0 0 0 0 0 0 0 0 0 0 0 0 0 0 0 0 0 0 .4 0"/><feOffset dx="4.0" dy="4.0" in="blurOut2" result="blurOut3"/><feBlend in="SourceGraphic" in2="blurOut3" mode="normal"/></filter></defs><g><!--MD5=[c160724f8e3bb89ca8141a12554ac2e3]
class Collection--><rect codeLine="6" fill="#FEFECE" filter="url(#fs1ydtxyfdxir)" height="32" id="Collection" style="stroke:#FF0000;stroke-width:1.5;" width="87" x="328" y="7"/><ellipse cx="343" cy="23" fill="#B4A7E5" rx="11" ry="11" style="stroke:#FF0000;stroke-width:1.0;"/><path d="M339.4277,19.2651 L339.4277,17.1069 L346.8071,17.1069 L346.8071,19.2651 L344.3418,19.2651 L344.3418,27.3418 L346.8071,27.3418 L346.8071,29.5 L339.4277,29.5 L339.4277,27.3418 L341.8931,27.3418 L341.8931,19.2651 Z " fill="#000000"/><text fill="#000000" font-family="sans-serif" font-size="12" font-style="italic" lengthAdjust="spacing" textLength="55" x="357" y="27.5352">Collection</text><!--MD5=[4dcd53ac5be50d67f3d64d956c655d59]
class List<T>--><rect codeLine="8" fill="#FEFECE" filter="url(#fs1ydtxyfdxir)" height="32" id="List&lt;T&gt;" style="stroke:#FF0000;stroke-width:1.5;" width="79" x="7" y="99"/><ellipse cx="22" cy="115" fill="#ADD1B2" rx="11" ry="11" style="stroke:#FF0000;stroke-width:1.0;"/><path d="M24.4731,121.1431 Q23.8921,121.4419 23.2529,121.5913 Q22.6138,121.7407 21.9082,121.7407 Q19.4014,121.7407 18.0815,120.0889 Q16.7617,118.437 16.7617,115.3159 Q16.7617,112.1865 18.0815,110.5347 Q19.4014,108.8828 21.9082,108.8828 Q22.6138,108.8828 23.2612,109.0322 Q23.9087,109.1816 24.4731,109.4805 L24.4731,112.2031 Q23.8423,111.6221 23.2488,111.3523 Q22.6553,111.0825 22.0244,111.0825 Q20.6797,111.0825 19.9949,112.1492 Q19.3101,113.2158 19.3101,115.3159 Q19.3101,117.4077 19.9949,118.4744 Q20.6797,119.541 22.0244,119.541 Q22.6553,119.541 23.2488,119.2712 Q23.8423,119.0015 24.4731,118.4204 Z " fill="#000000"/><text fill="#000000" font-family="sans-serif" font-size="12" lengthAdjust="spacing" textLength="47" x="36" y="119.5352">List&lt;T&gt;</text><!--MD5=[8e786d5ad0a1f26ce02b3732d670e3a1]
class Map<T>--><rect codeLine="11" fill="#FEFECE" filter="url(#fs1ydtxyfdxir)" height="32" id="Map&lt;T&gt;" style="stroke:#FF0000;stroke-width:1.5;" width="85" x="121" y="99"/><ellipse cx="136" cy="115" fill="#ADD1B2" rx="11" ry="11" style="stroke:#FF0000;stroke-width:1.0;"/><path d="M138.4731,121.1431 Q137.8921,121.4419 137.2529,121.5913 Q136.6138,121.7407 135.9082,121.7407 Q133.4014,121.7407 132.0815,120.0889 Q130.7617,118.437 130.7617,115.3159 Q130.7617,112.1865 132.0815,110.5347 Q133.4014,108.8828 135.9082,108.8828 Q136.6138,108.8828 137.2612,109.0322 Q137.9087,109.1816 138.4731,109.4805 L138.4731,112.2031 Q137.8423,111.6221 137.2488,111.3523 Q136.6553,111.0825 136.0244,111.0825 Q134.6797,111.0825 133.9949,112.1492 Q133.3101,113.2158 133.3101,115.3159 Q133.3101,117.4077 133.9949,118.4744 Q134.6797,119.541 136.0244,119.541 Q136.6553,119.541 137.2488,119.2712 Q137.8423,119.0015 138.4731,118.4204 Z " fill="#000000"/><text fill="#000000" font-family="sans-serif" font-size="12" lengthAdjust="spacing" textLength="53" x="150" y="119.5352">Map&lt;T&gt;</text><!--MD5=[51b30b53d746c08f9b2f1f5a55712f3a]
class QuadTree<T>--><rect codeLine="14" fill="#FEFECE" filter="url(#fs1ydtxyfdxir)" height="32" id="QuadTree&lt;T&gt;" style="stroke:#FF0000;stroke-width:1.5;" width="118" x="241.5" y="99"/><ellipse cx="256.5" cy="115" fill="#ADD1B2" rx="11" ry="11" style="stroke:#FF0000;stroke-width:1.0;"/><path d="M258.9731,121.1431 Q258.3921,121.4419 257.7529,121.5913 Q257.1138,121.7407 256.4082,121.7407 Q253.9014,121.7407 252.5815,120.0889 Q251.2617,118.437 251.2617,115.3159 Q251.2617,112.1865 252.5815,110.5347 Q253.9014,108.8828 256.4082,108.8828 Q257.1138,108.8828 257.7612,109.0322 Q258.4087,109.1816 258.9731,109.4805 L258.9731,112.2031 Q258.3423,111.6221 257.7488,111.3523 Q257.1553,111.0825 256.5244,111.0825 Q255.1797,111.0825 254.4949,112.1492 Q253.8101,113.2158 253.8101,115.3159 Q253.8101,117.4077 254.4949,118.4744 Q255.1797,119.541 256.5244,119.541 Q257.1553,119.541 257.7488,119.2712 Q258.3423,119.0015 258.9731,118.4204 Z " fill="#000000"/><text fill="#000000" font-family="sans-serif" font-size="12" lengthAdjust="spacing" textLength="86" x="270.5" y="119.5352">QuadTree&lt;T&gt;</text><!--MD5=[4cf8791f059241ba487a2a3cb7a4983d]
class Queue<T>--><rect codeLine="17" fill="#FEFECE" filter="url(#fs1ydtxyfdxir)" height="32" id="Queue&lt;T&gt;" style="stroke:#FF0000;stroke-width:1.5;" width="97" x="395" y="99"/><ellipse cx="410" cy="115" fill="#ADD1B2" rx="11" ry="11" style="stroke:#FF0000;stroke-width:1.0;"/><path d="M412.4731,121.1431 Q411.8921,121.4419 411.2529,121.5913 Q410.6138,121.7407 409.9082,121.7407 Q407.4014,121.7407 406.0815,120.0889 Q404.7617,118.437 404.7617,115.3159 Q404.7617,112.1865 406.0815,110.5347 Q407.4014,108.8828 409.9082,108.8828 Q410.6138,108.8828 411.2612,109.0322 Q411.9087,109.1816 412.4731,109.4805 L412.4731,112.2031 Q411.8423,111.6221 411.2488,111.3523 Q410.6553,111.0825 410.0244,111.0825 Q408.6797,111.0825 407.9949,112.1492 Q407.3101,113.2158 407.3101,115.3159 Q407.3101,117.4077 407.9949,118.4744 Q408.6797,119.541 410.0244,119.541 Q410.6553,119.541 411.2488,119.2712 Q411.8423,119.0015 412.4731,118.4204 Z " fill="#000000"/><text fill="#000000" font-family="sans-serif" font-size="12" lengthAdjust="spacing" textLength="65" x="424" y="119.5352">Queue&lt;T&gt;</text><!--MD5=[436d0f1cf037ffca600a8f8d2870c506]
class RegionQuadTree<T>--><rect codeLine="20" fill="#FEFECE" filter="url(#fs1ydtxyfdxir)" height="32" id="RegionQuadTree&lt;T&gt;" style="stroke:#FF0000;stroke-width:1.5;" width="157" x="527" y="99"/><ellipse cx="542" cy="115" fill="#ADD1B2" rx="11" ry="11" style="stroke:#FF0000;stroke-width:1.0;"/><path d="M544.4731,121.1431 Q543.8921,121.4419 543.2529,121.5913 Q542.6138,121.7407 541.9082,121.7407 Q539.4014,121.7407 538.0815,120.0889 Q536.7617,118.437 536.7617,115.3159 Q536.7617,112.1865 538.0815,110.5347 Q539.4014,108.8828 541.9082,108.8828 Q542.6138,108.8828 543.2612,109.0322 Q543.9087,109.1816 544.4731,109.4805 L544.4731,112.2031 Q543.8423,111.6221 543.2488,111.3523 Q542.6553,111.0825 542.0244,111.0825 Q540.6797,111.0825 539.9949,112.1492 Q539.3101,113.2158 539.3101,115.3159 Q539.3101,117.4077 539.9949,118.4744 Q540.6797,119.541 542.0244,119.541 Q542.6553,119.541 543.2488,119.2712 Q543.8423,119.0015 544.4731,118.4204 Z " fill="#000000"/><text fill="#000000" font-family="sans-serif" font-size="12" lengthAdjust="spacing" textLength="125" x="556" y="119.5352">RegionQuadTree&lt;T&gt;</text><!--MD5=[fb7006540e733b1a9ab65208252ddbb8]
class Stack<T>--><rect codeLine="23" fill="#FEFECE" filter="url(#fs1ydtxyfdxir)" height="32" id="Stack&lt;T&gt;" style="stroke:#FF0000;stroke-width:1.5;" width="90" x="719.5" y="99"/><ellipse cx="734.5" cy="115" fill="#ADD1B2" rx="11" ry="11" style="stroke:#FF0000;stroke-width:1.0;"/><path d="M736.9731,121.1431 Q736.3921,121.4419 735.7529,121.5913 Q735.1138,121.7407 734.4082,121.7407 Q731.9014,121.7407 730.5815,120.0889 Q729.2617,118.437 729.2617,115.3159 Q729.2617,112.1865 730.5815,110.5347 Q731.9014,108.8828 734.4082,108.8828 Q735.1138,108.8828 735.7612,109.0322 Q736.4087,109.1816 736.9731,109.4805 L736.9731,112.2031 Q736.3423,111.6221 735.7488,111.3523 Q735.1553,111.0825 734.5244,111.0825 Q733.1797,111.0825 732.4949,112.1492 Q731.8101,113.2158 731.8101,115.3159 Q731.8101,117.4077 732.4949,118.4744 Q733.1797,119.541 734.5244,119.541 Q735.1553,119.541 735.7488,119.2712 Q736.3423,119.0015 736.9731,118.4204 Z " fill="#000000"/><text fill="#000000" font-family="sans-serif" font-size="12" lengthAdjust="spacing" textLength="58" x="748.5" y="119.5352">Stack&lt;T&gt;</text><!--MD5=[4eb1729ebd56ae2608f414e26e76dc86]
reverse link Collection to List<T>--><path codeLine="10" d="M308.04,41.57 C242.22,59.8 141.34,87.74 86.08,103.04 " fill="none" id="Collection-backto-List&lt;T&gt;" style="stroke:#FF0000;stroke-width:1.0;stroke-dasharray:7.0,7.0;"/><polygon fill="none" points="306.53,34.73,327.67,36.14,310.26,48.22,306.53,34.73" style="stroke:#FF0000;stroke-width:1.0;"/><!--MD5=[ddff44a63bd43d18e710a8badc48b93c]
reverse link Collection to Map<T>--><path codeLine="13" d="M318.22,47.06 C280.56,63.35 231.16,84.72 198.43,98.89 " fill="none" id="Collection-backto-Map&lt;T&gt;" style="stroke:#FF0000;stroke-width:1.0;stroke-dasharray:7.0,7.0;"/><polygon fill="none" points="315.55,40.58,336.69,39.06,321.11,53.43,315.55,40.58" style="stroke:#FF0000;stroke-width:1.0;"/><!--MD5=[21eceea7aaf237daefa3b2a5e48b6806]
reverse link Collection to QuadTree<T>--><path codeLine="16" d="M346.88,55.21 C335.19,70.03 321.76,87.06 312.37,98.96 " fill="none" id="Collection-backto-QuadTree&lt;T&gt;" style="stroke:#FF0000;stroke-width:1.0;stroke-dasharray:7.0,7.0;"/><polygon fill="none" points="341.57,50.63,359.46,39.27,352.56,59.3,341.57,50.63" style="stroke:#FF0000;stroke-width:1.0;"/><!--MD5=[af29c0f9b332e8adfb7dde84f08603cf]
reverse link Collection to Queue<T>--><path codeLine="19" d="M396.47,55.21 C408.32,70.03 421.94,87.06 431.47,98.96 " fill="none" id="Collection-backto-Queue&lt;T&gt;" style="stroke:#FF0000;stroke-width:1.0;stroke-dasharray:7.0,7.0;"/><polygon fill="none" points="390.74,59.26,383.71,39.27,401.67,50.51,390.74,59.26" style="stroke:#FF0000;stroke-width:1.0;"/><!--MD5=[24ee9484d373c81dcf9aa3a2df39bef6]
reverse link Collection to RegionQuadTree<T>--><path codeLine="22" d="M429.41,46.27 C472.02,62.66 528.79,84.5 566.21,98.89 " fill="none" id="Collection-backto-RegionQuadTree&lt;T&gt;" style="stroke:#FF0000;stroke-width:1.0;stroke-dasharray:7.0,7.0;"/><polygon fill="none" points="426.82,52.78,410.67,39.06,431.85,39.71,426.82,52.78" style="stroke:#FF0000;stroke-width:1.0;"/><!--MD5=[61f25ba62b4e6d47c88d6f463867a92a]
reverse link Collection to Stack<T>--><path codeLine="25" d="M434.69,38.16 C501.15,53.1 608.74,77.42 701.5,99 C707.3,100.35 713.4,101.78 719.43,103.21 " fill="none" id="Collection-backto-Stack&lt;T&gt;" style="stroke:#FF0000;stroke-width:1.0;stroke-dasharray:7.0,7.0;"/><polygon fill="none" points="433.02,44.96,415.04,33.75,436.09,31.3,433.02,44.96" style="stroke:#FF0000;stroke-width:1.0;"/><!--MD5=[d0083b20e20a9d7fc83d55c2ccb7143b]
@startuml
skinparam ClassArrowColor #ff0000
skinparam ClassBorderColor #ff0000
skinparam BackgroundColor transparent
hide empty methods
hide empty fields
interface "Collection" {
}
class "List<T>" {
}
"Collection" <|.. "List<T>"
class "Map<T>" {
}
"Collection" <|.. "Map<T>"
class "QuadTree<T>" {
}
"Collection" <|.. "QuadTree<T>"
class "Queue<T>" {
}
"Collection" <|.. "Queue<T>"
class "RegionQuadTree<T>" {
}
"Collection" <|.. "RegionQuadTree<T>"
class "Stack<T>" {
}
"Collection" <|.. "Stack<T>"
@enduml

PlantUML version 1.2021.14(Fri Nov 12 11:46:50 EST 2021)
(GPL source distribution)
Java Runtime: Java(TM) SE Runtime Environment
JVM: Java HotSpot(TM) 64-Bit Server VM
Default Encoding: UTF-8
Language: en
Country: US
--></g></svg>