<?xml version="1.0" encoding="UTF-8" standalone="no"?><svg xmlns="http://www.w3.org/2000/svg" xmlns:xlink="http://www.w3.org/1999/xlink" contentScriptType="application/ecmascript" contentStyleType="text/css" height="145px" preserveAspectRatio="none" style="width:108px;height:145px;background:#00000000;" version="1.1" viewBox="0 0 108 145" width="108px" zoomAndPan="magnify"><defs><filter height="300%" id="f3txdixat5fw0" width="300%" x="-1" y="-1"><feGaussianBlur result="blurOut" stdDeviation="2.0"/><feColorMatrix in="blurOut" result="blurOut2" type="matrix" values="0 0 0 0 0 0 0 0 0 0 0 0 0 0 0 0 0 0 .4 0"/><feOffset dx="4.0" dy="4.0" in="blurOut2" result="blurOut3"/><feBlend in="SourceGraphic" in2="blurOut3" mode="normal"/></filter></defs><g><!--MD5=[8e786d5ad0a1f26ce02b3732d670e3a1]
class Map<T>--><rect codeLine="6" fill="#FEFECE" filter="url(#f3txdixat5fw0)" height="32" id="Map&lt;T&gt;" style="stroke:#FF0000;stroke-width:1.5;" width="85" x="8" y="99"/><ellipse cx="23" cy="115" fill="#ADD1B2" rx="11" ry="11" style="stroke:#FF0000;stroke-width:1.0;"/><path d="M25.4731,121.1431 Q24.8921,121.4419 24.2529,121.5913 Q23.6138,121.7407 22.9082,121.7407 Q20.4014,121.7407 19.0815,120.0889 Q17.7617,118.437 17.7617,115.3159 Q17.7617,112.1865 19.0815,110.5347 Q20.4014,108.8828 22.9082,108.8828 Q23.6138,108.8828 24.2612,109.0322 Q24.9087,109.1816 25.4731,109.4805 L25.4731,112.2031 Q24.8423,111.6221 24.2488,111.3523 Q23.6553,111.0825 23.0244,111.0825 Q21.6797,111.0825 20.9949,112.1492 Q20.3101,113.2158 20.3101,115.3159 Q20.3101,117.4077 20.9949,118.4744 Q21.6797,119.541 23.0244,119.541 Q23.6553,119.541 24.2488,119.2712 Q24.8423,119.0015 25.4731,118.4204 Z " fill="#000000"/><text fill="#000000" font-family="sans-serif" font-size="12" lengthAdjust="spacing" textLength="53" x="37" y="119.5352">Map&lt;T&gt;</text><!--MD5=[c160724f8e3bb89ca8141a12554ac2e3]
class Collection--><rect codeLine="8" fill="#FEFECE" filter="url(#f3txdixat5fw0)" height="32" id="Collection" style="stroke:#FF0000;stroke-width:1.5;" width="87" x="7" y="7"/><ellipse cx="22" cy="23" fill="#B4A7E5" rx="11" ry="11" style="stroke:#FF0000;stroke-width:1.0;"/><path d="M18.4277,19.2651 L18.4277,17.1069 L25.8071,17.1069 L25.8071,19.2651 L23.3418,19.2651 L23.3418,27.3418 L25.8071,27.3418 L25.8071,29.5 L18.4277,29.5 L18.4277,27.3418 L20.8931,27.3418 L20.8931,19.2651 Z " fill="#000000"/><text fill="#000000" font-family="sans-serif" font-size="12" font-style="italic" lengthAdjust="spacing" textLength="55" x="36" y="27.5352">Collection</text><!--MD5=[ddff44a63bd43d18e710a8badc48b93c]
reverse link Collection to Map<T>--><path codeLine="10" d="M50.5,59.61 C50.5,73.31 50.5,88.22 50.5,98.96 " fill="none" id="Collection-backto-Map&lt;T&gt;" style="stroke:#FF0000;stroke-width:1.0;stroke-dasharray:7.0,7.0;"/><polygon fill="none" points="43.5,59.27,50.5,39.27,57.5,59.27,43.5,59.27" style="stroke:#FF0000;stroke-width:1.0;"/><!--MD5=[cd8ee17398500c5cee0027eb22f944df]
@startuml
skinparam ClassArrowColor #ff0000
skinparam ClassBorderColor #ff0000
skinparam BackgroundColor transparent
hide empty methods
hide empty fields
class "Map<T>" {
}
interface "Collection" {
}
"Collection" <|.. "Map<T>"
@enduml

PlantUML version 1.2021.14(Fri Nov 12 11:46:50 EST 2021)
(GPL source distribution)
Java Runtime: Java(TM) SE Runtime Environment
JVM: Java HotSpot(TM) 64-Bit Server VM
Default Encoding: UTF-8
Language: en
Country: US
--></g></svg>