<?xml version="1.0" encoding="UTF-8" standalone="no"?><svg xmlns="http://www.w3.org/2000/svg" xmlns:xlink="http://www.w3.org/1999/xlink" contentScriptType="application/ecmascript" contentStyleType="text/css" height="186px" preserveAspectRatio="none" style="width:263px;height:186px;background:#00000000;" version="1.1" viewBox="0 0 263 186" width="263px" zoomAndPan="magnify"><defs><filter height="300%" id="f18a5m2d33gt0t" width="300%" x="-1" y="-1"><feGaussianBlur result="blurOut" stdDeviation="2.0"/><feColorMatrix in="blurOut" result="blurOut2" type="matrix" values="0 0 0 0 0 0 0 0 0 0 0 0 0 0 0 0 0 0 .4 0"/><feOffset dx="4.0" dy="4.0" in="blurOut2" result="blurOut3"/><feBlend in="SourceGraphic" in2="blurOut3" mode="normal"/></filter></defs><g><!--MD5=[d6181cb537bdc20c0a3007a98a56832d]
class Student--><rect codeLine="6" fill="#FEFECE" filter="url(#f18a5m2d33gt0t)" height="52.8047" id="Student" style="stroke:#FF0000;stroke-width:1.5;" width="242" x="7" y="120"/><ellipse cx="98.75" cy="136" fill="#ADD1B2" rx="11" ry="11" style="stroke:#FF0000;stroke-width:1.0;"/><path d="M101.7188,141.6406 Q101.1406,141.9375 100.5,142.0781 Q99.8594,142.2344 99.1563,142.2344 Q96.6563,142.2344 95.3281,140.5938 Q94.0156,138.9375 94.0156,135.8125 Q94.0156,132.6875 95.3281,131.0313 Q96.6563,129.375 99.1563,129.375 Q99.8594,129.375 100.5,129.5313 Q101.1563,129.6875 101.7188,129.9844 L101.7188,132.7031 Q101.0938,132.125 100.5,131.8594 Q99.9063,131.5781 99.2813,131.5781 Q97.9375,131.5781 97.25,132.6563 Q96.5625,133.7188 96.5625,135.8125 Q96.5625,137.9063 97.25,138.9844 Q97.9375,140.0469 99.2813,140.0469 Q99.9063,140.0469 100.5,139.7813 Q101.0938,139.5 101.7188,138.9219 L101.7188,141.6406 Z " fill="#000000"/><text fill="#000000" font-family="sans-serif" font-size="12" lengthAdjust="spacing" textLength="50" x="119.25" y="140.1543">Student</text><line style="stroke:#FF0000;stroke-width:1.5;" x1="8" x2="248" y1="152" y2="152"/><ellipse cx="18" cy="163" fill="#84BE84" rx="3" ry="3" style="stroke:#038048;stroke-width:1.0;"/><text fill="#000000" font-family="sans-serif" font-size="11" lengthAdjust="spacing" textLength="216" x="27" y="166.2104">doSomething(num: number) : number</text><!--MD5=[09ce52be0ee7de43c61b6e2d59bf108b]
class Person--><rect codeLine="9" fill="#FEFECE" filter="url(#f18a5m2d33gt0t)" height="52.8047" id="Person" style="stroke:#FF0000;stroke-width:1.5;" width="242" x="7" y="7"/><ellipse cx="101.75" cy="23" fill="#ADD1B2" rx="11" ry="11" style="stroke:#FF0000;stroke-width:1.0;"/><path d="M104.7188,28.6406 Q104.1406,28.9375 103.5,29.0781 Q102.8594,29.2344 102.1563,29.2344 Q99.6563,29.2344 98.3281,27.5938 Q97.0156,25.9375 97.0156,22.8125 Q97.0156,19.6875 98.3281,18.0313 Q99.6563,16.375 102.1563,16.375 Q102.8594,16.375 103.5,16.5313 Q104.1563,16.6875 104.7188,16.9844 L104.7188,19.7031 Q104.0938,19.125 103.5,18.8594 Q102.9063,18.5781 102.2813,18.5781 Q100.9375,18.5781 100.25,19.6563 Q99.5625,20.7188 99.5625,22.8125 Q99.5625,24.9063 100.25,25.9844 Q100.9375,27.0469 102.2813,27.0469 Q102.9063,27.0469 103.5,26.7813 Q104.0938,26.5 104.7188,25.9219 L104.7188,28.6406 Z " fill="#000000"/><text fill="#000000" font-family="sans-serif" font-size="12" lengthAdjust="spacing" textLength="44" x="122.25" y="27.1543">Person</text><line style="stroke:#FF0000;stroke-width:1.5;" x1="8" x2="248" y1="39" y2="39"/><ellipse cx="18" cy="50" fill="#84BE84" rx="3" ry="3" style="stroke:#038048;stroke-width:1.0;"/><text fill="#000000" font-family="sans-serif" font-size="11" lengthAdjust="spacing" textLength="216" x="27" y="53.2104">doSomething(num: number) : number</text><!--MD5=[59fe9c8026b8fdee425aa7f650c1a023]
reverse link Person to Student--><path codeLine="12" d="M128,80.34 C128,93.85 128,108.15 128,119.89 " fill="none" id="Person-backto-Student" style="stroke:#FF0000;stroke-width:1.0;"/><polygon fill="none" points="121,80.24,128,60.24,135,80.24,121,80.24" style="stroke:#FF0000;stroke-width:1.0;"/><!--MD5=[18982546a1c55f4f2f5e5f1af6d813e8]
@startuml
skinparam ClassArrowColor #ff0000
skinparam ClassBorderColor #ff0000
skinparam BackgroundColor transparent
hide empty methods
hide empty fields
class "Student" {
    +doSomething(num: number) : number
}
class "Person" {
    +doSomething(num: number) : number
}
"Person" <|- - "Student"
@enduml

PlantUML version 1.2021.14(Fri Nov 12 16:46:50 UTC 2021)
(GPL source distribution)
Java Runtime: OpenJDK Runtime Environment
JVM: OpenJDK 64-Bit Server VM
Default Encoding: UTF-8
Language: en
Country: null
--></g></svg>