<?xml version="1.0" encoding="UTF-8" standalone="no"?><svg xmlns="http://www.w3.org/2000/svg" xmlns:xlink="http://www.w3.org/1999/xlink" contentScriptType="application/ecmascript" contentStyleType="text/css" height="145px" preserveAspectRatio="none" style="width:125px;height:145px;background:#00000000;" version="1.1" viewBox="0 0 125 145" width="125px" zoomAndPan="magnify"><defs><filter height="300%" id="fkdluazyizte1" width="300%" x="-1" y="-1"><feGaussianBlur result="blurOut" stdDeviation="2.0"/><feColorMatrix in="blurOut" result="blurOut2" type="matrix" values="0 0 0 0 0 0 0 0 0 0 0 0 0 0 0 0 0 0 .4 0"/><feOffset dx="4.0" dy="4.0" in="blurOut2" result="blurOut3"/><feBlend in="SourceGraphic" in2="blurOut3" mode="normal"/></filter></defs><g><!--MD5=[a49b7276910d6619e9702881d69ae75a]
class UIElement--><rect codeLine="6" fill="#FEFECE" filter="url(#fkdluazyizte1)" height="32" id="UIElement" style="stroke:#FF0000;stroke-width:1.5;" width="89" x="14.5" y="99"/><ellipse cx="29.5" cy="115" fill="#A9DCDF" rx="11" ry="11" style="stroke:#FF0000;stroke-width:1.0;"/><path d="M29.3633,110.3481 L28.2095,115.4199 L30.5254,115.4199 Z M27.8691,108.1069 L30.8657,108.1069 L34.2109,120.5 L31.7622,120.5 L30.9985,117.437 L27.7197,117.437 L26.9727,120.5 L24.5239,120.5 Z " fill="#000000"/><text fill="#000000" font-family="sans-serif" font-size="12" font-style="italic" lengthAdjust="spacing" textLength="57" x="43.5" y="119.5352">UIElement</text><!--MD5=[2e70b9baf931f95a6b812c993ae5d283]
class CanvasNode--><rect codeLine="8" fill="#FEFECE" filter="url(#fkdluazyizte1)" height="32" id="CanvasNode" style="stroke:#FF0000;stroke-width:1.5;" width="104" x="7" y="7"/><ellipse cx="22" cy="23" fill="#A9DCDF" rx="11" ry="11" style="stroke:#FF0000;stroke-width:1.0;"/><path d="M21.8633,18.3481 L20.7095,23.4199 L23.0254,23.4199 Z M20.3691,16.1069 L23.3657,16.1069 L26.7109,28.5 L24.2622,28.5 L23.4985,25.437 L20.2197,25.437 L19.4727,28.5 L17.0239,28.5 Z " fill="#000000"/><text fill="#000000" font-family="sans-serif" font-size="12" font-style="italic" lengthAdjust="spacing" textLength="72" x="36" y="27.5352">CanvasNode</text><!--MD5=[b1aed5b7c77024fa1b37236a68add774]
reverse link CanvasNode to UIElement--><path codeLine="10" d="M59,59.61 C59,73.31 59,88.22 59,98.96 " fill="none" id="CanvasNode-backto-UIElement" style="stroke:#FF0000;stroke-width:1.0;"/><polygon fill="none" points="52,59.27,59,39.27,66,59.27,52,59.27" style="stroke:#FF0000;stroke-width:1.0;"/><!--MD5=[20a545957b0d3948275c8798c154cedc]
@startuml
skinparam ClassArrowColor #ff0000
skinparam ClassBorderColor #ff0000
skinparam BackgroundColor transparent
hide empty methods
hide empty fields
abstract class "UIElement" {
}
abstract class "CanvasNode" {
}
"CanvasNode" <|- - "UIElement"
@enduml

PlantUML version 1.2021.14(Fri Nov 12 11:46:50 EST 2021)
(GPL source distribution)
Java Runtime: Java(TM) SE Runtime Environment
JVM: Java HotSpot(TM) 64-Bit Server VM
Default Encoding: UTF-8
Language: en
Country: US
--></g></svg>